<svg width="100" height="100" viewBox="0 0 100 100" fill="none" xmlns="http://www.w3.org/2000/svg">
<path d="M91.2146 64.6641L91.2143 64.664L86.5875 62.5193L86.5866 62.5189L73.7806 56.5904C74.1047 54.8587 74.3052 53.0964 74.3655 51.3046L74.3658 51.2972L74.366 51.2898L74.3663 51.2774C74.377 50.8716 74.3885 50.4361 74.3885 49.9962L74.3885 49.9883C74.3769 47.0517 74.0086 44.0657 73.2357 41.1111C72.9344 39.9413 72.5653 38.7777 72.1413 37.6316L72.1402 37.6287C70.8038 34.0343 68.9472 30.7808 66.6844 27.9288C61.9426 21.9298 55.4388 17.6876 48.2347 15.6818C42.2367 14.0093 35.7411 13.8938 29.3966 15.6126L29.3898 15.6144C28.3471 15.9009 27.3 16.2344 26.2496 16.6268C20.6573 18.7026 15.8933 22.0481 12.1574 26.199L12.1551 26.2016C8.547 30.2247 5.89451 35.0097 4.40626 40.1782L4.40043 40.1985L4.3895 40.2258L4.36131 40.3246C3.47374 43.4369 3 46.6914 3 49.9962C3 50.4878 3.01087 50.9658 3.02138 51.4279L3.02229 51.4677L3.02269 51.4852L3.02339 51.5027C3.10421 53.5116 3.35807 55.5282 3.78354 57.5406L3.78449 57.5451C4.14266 59.2204 4.62719 60.8805 5.23668 62.525L5.23667 62.525L5.23818 62.5291C8.05033 70.0665 13.1369 76.1123 19.4358 80.1387C28.5535 85.9713 40.2048 87.6005 51.1286 83.5286L51.1295 83.5283C53.6272 82.596 55.9561 81.4203 58.1139 80.0242L58.1146 80.0237C60.9025 78.218 63.3746 76.0625 65.501 73.639L69.523 75.5004L69.5236 75.5006L83.2511 81.8582L83.256 81.8604C85.781 83.0216 88.5315 83.0696 90.9281 82.1795L90.9289 82.1791C93.1806 81.3416 95.1161 79.6665 96.1887 77.3126L96.1932 77.3026C98.3519 72.4945 96.0293 66.8966 91.2146 64.6641ZM53.6505 65.1872L53.6495 65.1882C51.5717 67.2461 49.0373 68.9065 46.1111 69.9916C46.0491 70.0145 45.9949 70.0346 45.9463 70.0527C45.9036 70.0686 45.8651 70.0829 45.8294 70.0961H45.8213L45.5085 70.2023C36.4578 73.2756 26.6835 69.8853 21.3593 62.4016C20.3104 60.9272 19.4277 59.2835 18.7612 57.4997C18.7478 57.4612 18.7354 57.4273 18.7254 57.4004C18.7166 57.3768 18.7055 57.3475 18.6985 57.3291L18.6935 57.3159C18.6867 57.2979 18.683 57.2878 18.6814 57.2834L18.6693 57.2431L18.652 57.1945C17.8063 54.8266 17.4081 52.3996 17.4077 50.011C17.4181 47.3621 17.9162 44.7663 18.8598 42.3525L18.8617 42.3477C20.982 36.8826 25.349 32.3184 31.2692 30.1194L31.275 30.1172C31.67 29.9691 32.0423 29.8391 32.4108 29.7298C32.4815 29.7109 32.547 29.6893 32.607 29.6666C43.1525 26.5151 54.4801 31.9683 58.5049 42.3474L58.5087 42.3573L58.5126 42.3671C58.5256 42.3996 58.5386 42.4312 58.548 42.4541L58.551 42.4615C58.5617 42.4878 58.5681 42.5034 58.5732 42.5165C58.5751 42.5213 58.5765 42.5249 58.5775 42.5276L58.5925 42.5775L58.6154 42.6389C59.5203 45.0652 59.9485 47.5617 59.959 50.0105C59.9589 51.0014 59.8897 51.987 59.7599 52.9684C59.5595 54.3766 59.2307 55.7479 58.7654 57.0746L58.7646 57.0768C58.1188 58.9249 57.2133 60.6877 56.0869 62.3034C55.3677 63.3216 54.5515 64.2961 53.6505 65.1872ZM45.4151 70.2416C45.4136 70.2423 45.4148 70.2418 45.4154 70.2415L45.4151 70.2416Z" fill="#0F2336" stroke="white" stroke-width="4"/>
<circle cx="38.5" cy="50.5" r="22.5" fill="white"/>
<path d="M34.2307 54.2637L49.5592 38.9353C50.2015 38.3039 50.9744 37.9773 51.878 37.9773C52.7816 37.9773 53.5546 38.293 54.186 38.9244C54.8174 39.5559 55.144 40.3288 55.144 41.2433C55.144 42.1578 54.8283 42.9307 54.186 43.573L36.5278 61.1877C35.8964 61.8191 35.1343 62.1457 34.2416 62.1457C33.3489 62.1457 32.5869 61.83 31.9445 61.1877L23.6816 52.9791C23.0501 52.315 22.7235 51.5421 22.7235 50.6494C22.7235 49.7567 23.0393 48.9837 23.6707 48.3523C24.3348 47.6882 25.1077 47.3507 26.0113 47.3507C26.9149 47.3507 27.677 47.6882 28.3084 48.3523L34.2307 54.2637Z" fill="#16C44D"/>
</svg>
