<svg width="100" height="100" viewBox="0 0 100 100" fill="none" xmlns="http://www.w3.org/2000/svg">
<g clip-path="url(#clip0_15_256)">
<path d="M20.9874 79.8898C20.2961 79.8898 19.7043 79.6437 19.2121 79.1514C18.7198 78.6591 18.4736 78.0673 18.4736 77.3761V62.2934C18.4736 61.6021 18.7198 61.0103 19.2121 60.5181C19.7043 60.0258 20.2961 59.7796 20.9874 59.7796H41.0976C41.7889 59.7796 42.3807 60.0258 42.8729 60.5181C43.3652 61.0103 43.6114 61.6021 43.6114 62.2934V77.3761C43.6114 78.0673 43.3652 78.6591 42.8729 79.1514C42.3807 79.6437 41.7889 79.8898 41.0976 79.8898H20.9874ZM20.9874 77.3761H41.0976V64.8072H20.9874V77.3761ZM26.8634 71.0916L24.4753 68.7035C24.2239 68.4522 24.1034 68.1589 24.1139 67.8237C24.1244 67.4886 24.2553 67.1953 24.5067 66.9439C24.7581 66.7135 25.0513 66.593 25.3865 66.5825C25.7217 66.5721 26.015 66.6925 26.2663 66.9439L29.5342 70.2118C29.7856 70.4632 29.9113 70.7565 29.9113 71.0916C29.9113 71.4268 29.7856 71.7201 29.5342 71.9714L26.2663 75.2394C26.0359 75.4698 25.7479 75.5902 25.4022 75.6007C25.0566 75.6112 24.7581 75.4907 24.5067 75.2394C24.2763 75.0089 24.161 74.7156 24.161 74.3595C24.161 74.0034 24.2763 73.7101 24.5067 73.4797L26.8634 71.0916ZM32.2994 76.1192C31.9433 76.1192 31.6448 75.9987 31.4039 75.7578C31.163 75.5169 31.0425 75.2184 31.0425 74.8623C31.0425 74.5062 31.163 74.2077 31.4039 73.9668C31.6448 73.7259 31.9433 73.6054 32.2994 73.6054H37.3269C37.6831 73.6054 37.9816 73.7259 38.2225 73.9668C38.4634 74.2077 38.5838 74.5062 38.5838 74.8623C38.5838 75.2184 38.4634 75.5169 38.2225 75.7578C37.9816 75.9987 37.6831 76.1192 37.3269 76.1192H32.2994Z" fill="#E86329"/>
<path d="M63.644 43.4587C62.9812 43.4587 62.4138 43.2227 61.9419 42.7507C61.4699 42.2788 61.2339 41.7114 61.2339 41.0486V19.3574C61.2339 18.6946 61.4699 18.1272 61.9419 17.6552C62.4138 17.1832 62.9812 16.9472 63.644 16.9472H75.6947C76.3575 16.9472 76.9249 17.1832 77.3969 17.6552C77.8688 18.1272 78.1048 18.6946 78.1048 19.3574V41.0486C78.1048 41.7114 77.8688 42.2788 77.3969 42.7507C76.9249 43.2227 76.3575 43.4587 75.6947 43.4587H63.644ZM69.6694 40.446C70.0108 40.446 70.297 40.3306 70.528 40.0996C70.7589 39.8686 70.8744 39.5824 70.8744 39.241C70.8744 38.8995 70.7589 38.6133 70.528 38.3824C70.297 38.1514 70.0108 38.0359 69.6694 38.0359C69.3279 38.0359 69.0417 38.1514 68.8107 38.3824C68.5798 38.6133 68.4643 38.8995 68.4643 39.241C68.4643 39.5824 68.5798 39.8686 68.8107 40.0996C69.0417 40.3306 69.3279 40.446 69.6694 40.446ZM63.644 35.0232H75.6947V22.9726H63.644V35.0232Z" fill="#2A6FD6"/>
<path d="M99.2243 30.0463C99.2243 46.6034 85.8281 60.0195 69.2897 60.0925H69.1436C65.3927 60.0925 61.8122 59.4108 58.4997 58.1446C58.3048 58.0716 58.0856 57.9742 57.8907 57.9011C49.7556 55.028 42.3998 50.2557 33.339 49.1113C32.584 49.0139 30.2457 48.9895 29.856 49.0139C28.2485 49.0869 26.6896 49.3548 25.2038 49.7687C25.1795 49.7687 25.1795 49.7687 25.1551 49.7687C17.2392 51.9844 11.1987 58.729 9.98082 67.0075C9.83467 68.0302 9.7616 69.0528 9.7616 70.1242C9.7616 81.2515 18.3596 90.3823 29.2714 91.2101H29.2958C29.8804 91.2588 30.4649 91.3075 31.0739 91.3319C36.8708 91.3319 41.7665 89.1892 45.8828 85.0743C50.1696 80.7889 52.1425 76.0653 52.2887 70.1242C52.2643 69.1502 56.4293 67.7137 60.7161 66.4962C60.8379 67.6406 60.911 68.785 60.911 69.9537C60.911 86.5595 47.4417 100 30.8546 100C28.2241 100 25.691 99.6591 23.2797 99.0261C20.6004 98.3443 18.0916 97.2973 15.7534 95.9338C11.4179 93.4015 7.76434 89.8222 5.1338 85.5369C3.64803 83.102 2.47891 80.3993 1.7482 77.5749C1.11492 75.14 0.773926 72.5834 0.773926 69.9537C0.773926 67.4458 1.06621 65.0353 1.65077 62.6978C2.38148 59.8003 3.50189 57.0489 5.01202 54.5654C7.56949 50.28 11.1987 46.6764 15.4855 44.1198C19.9915 41.4414 25.2282 39.9075 30.8303 39.9075C34.0454 39.9075 37.1144 40.4188 40.0128 41.344C40.5 41.4901 40.9871 41.6606 41.4742 41.8554C41.4499 41.8067 54.7 47.2121 60.229 49.4278C61.7635 50.1339 63.3954 50.6939 65.1004 51.0105C66.44 51.2783 67.804 51.4 69.1923 51.4C69.4846 51.4 69.7769 51.4 70.0448 51.3757C77.0352 51.1079 83.1488 47.4312 86.8023 41.9771C89.0432 38.617 90.3341 34.5995 90.3341 30.2654C90.3341 25.0791 88.4586 20.3311 85.3653 16.6301C84.7564 15.8997 84.1231 15.2423 83.4167 14.6092L83.3924 14.5849C83.2706 14.4875 83.1488 14.3657 83.0514 14.2683C79.3491 11.0543 74.5021 9.1064 69.2167 9.1064C57.5497 9.1064 48.0993 18.5537 48.0749 30.2167C48.0749 31.5072 43.7394 32.9924 39.3795 34.1368C39.1847 32.7977 39.1116 31.4341 39.1116 30.0463C39.1116 27.5383 39.4283 25.1035 39.9885 22.766C40.6948 19.8929 41.8396 17.1902 43.301 14.7066C45.8585 10.3969 49.4633 6.79328 53.7744 4.23667C56.2588 2.7514 58.9868 1.60701 61.8609 0.900901C64.1992 0.316533 66.6592 0 69.168 0C71.7254 0 74.2342 0.316533 76.5968 0.92525C79.4953 1.65571 82.2232 2.82445 84.7076 4.30972C89.0188 6.91502 92.5993 10.5673 95.1324 14.9014C95.5221 15.5832 95.9118 16.2893 96.2528 16.9954C96.2528 17.0197 96.2771 17.0441 96.2771 17.0684C96.9835 18.5537 97.5681 20.112 98.0308 21.6947C98.0308 21.6947 98.0308 21.6947 98.0308 21.719C98.1283 22.0599 98.2257 22.4008 98.2988 22.7417C98.9077 25.1035 99.2243 27.5383 99.2243 30.0463Z" fill="#2D3B4F"/>
</g>
<defs>
<clipPath id="clip0_15_256">
<rect width="100" height="100" fill="white"/>
</clipPath>
</defs>
</svg>
