<svg width="1063" height="1085" viewBox="0 0 1063 1085" fill="none" xmlns="http://www.w3.org/2000/svg">
<g clip-path="url(#clip0_1_225)">
<path d="M1021.17 324.649C994.422 261.336 956.117 204.521 907.31 155.714C858.503 106.907 801.688 68.6017 738.375 41.8561C672.795 14.1283 603.136 0 531.436 0C459.737 0 390.153 14.0528 324.498 41.8561C261.185 68.6017 204.37 106.907 155.563 155.714C106.907 204.445 68.6017 261.336 41.8561 324.649C14.1283 390.229 0 459.888 0 531.587C0 532.57 0 533.552 0 534.534C0.377762 605.855 14.7327 675.062 42.536 740.263C69.4327 803.274 107.813 859.787 156.545 908.292C205.276 956.797 262.016 994.875 325.178 1021.55C327.898 1022.68 330.542 1023.81 333.262 1024.87C312.561 1001.07 296.166 973.645 284.984 943.5C276.9 921.816 271.762 899.528 269.571 876.862C254.234 865.227 239.653 852.534 225.826 838.784C186.086 799.194 154.807 753.107 132.897 701.732C110.231 648.618 98.5205 592.105 98.2182 533.93C98.2182 533.174 98.2182 532.418 98.2182 531.663C98.2182 473.185 109.702 416.445 132.292 363.03C154.127 311.427 185.33 265.114 225.146 225.298C264.963 185.481 311.276 154.278 362.879 132.444C416.294 109.853 473.034 98.3694 531.512 98.3694C589.989 98.3694 646.729 109.853 700.145 132.444C751.747 154.278 798.061 185.481 837.877 225.298C877.693 265.114 908.897 311.427 930.731 363.03C953.321 416.445 964.805 473.185 964.805 531.663C964.805 534.458 964.805 536.801 964.73 538.992C963.748 596.638 951.659 652.547 928.691 705.056C906.479 755.827 875.125 801.385 835.46 840.446C822.767 852.988 801.612 872.707 787.635 883.511L884.644 928.918C891.368 922.949 897.941 916.754 904.439 910.408C953.019 862.583 991.475 806.674 1018.75 744.419C1046.93 679.972 1061.81 611.522 1062.95 540.805C1063.02 537.934 1063.02 535.063 1063.02 531.663C1063.02 459.813 1048.97 390.229 1021.17 324.649Z" fill="url(#paint0_linear_1_225)"/>
<path d="M531.512 128.439C308.934 128.439 128.439 308.934 128.439 531.512C128.439 532.192 128.439 532.872 128.439 533.552C129.044 654.965 183.29 763.685 268.74 837.197C269.722 818.914 272.593 800.857 277.278 783.328V254.234H395.82C410.93 238.368 432.311 228.471 455.884 228.471H464.95C467.217 194.397 495.624 167.349 530.303 167.349H547.68C582.359 167.349 610.766 194.397 613.033 228.471H618.699C642.272 228.471 663.653 238.368 678.764 254.234H797.079V834.704C879.809 762.249 932.544 656.4 934.509 538.236C934.584 535.969 934.584 533.703 934.584 531.436C934.584 308.934 754.089 128.439 531.512 128.439Z" fill="#058454"/>
<path d="M934.584 531.512C934.584 533.778 934.584 536.045 934.509 538.312C890.462 559.24 844.601 576.843 797.079 590.745V254.234H678.764C663.653 238.368 642.272 228.471 618.699 228.471H613.033C610.766 194.397 582.359 167.349 547.68 167.349H530.303C495.624 167.349 467.217 194.397 464.95 228.471H455.884C432.311 228.471 410.93 238.368 395.82 254.234H277.278V591.123C225.675 576.163 175.886 556.746 128.439 533.476C128.439 532.796 128.439 532.116 128.439 531.436C128.439 308.859 308.934 128.364 531.512 128.364C754.089 128.364 934.584 308.934 934.584 531.512Z" fill="#16C44D"/>
<path d="M358.572 284.455V652.547C356.079 654.738 353.661 656.929 351.244 659.196C334.395 675.137 319.814 692.968 307.801 712.536V284.455H358.572Z" fill="#0F2336"/>
<path d="M766.631 284.455V729.459C753.485 704.074 736.335 681.106 715.784 661.311V284.455H766.631Z" fill="#0F2336"/>
<path d="M664.106 284.455C654.889 269.042 637.965 258.692 618.699 258.692H598.905C594.598 258.692 590.745 257.03 587.874 254.234C584.852 251.363 582.963 247.283 582.963 242.75V232.853C582.963 213.36 567.173 197.645 547.68 197.645H530.303C510.81 197.645 495.096 213.436 495.096 232.853V242.75C495.096 247.283 493.207 251.363 490.185 254.234C487.314 257.03 483.385 258.692 479.078 258.692H455.884C436.618 258.692 419.694 269.042 410.477 284.455C405.717 292.388 402.997 301.681 402.997 311.579H671.586C671.586 301.681 668.866 292.388 664.106 284.455ZM515.646 238.746C515.646 226.809 525.317 217.138 537.329 217.138C549.267 217.138 559.013 226.809 559.013 238.746C559.013 244.79 556.52 250.305 552.515 254.234C548.587 258.012 543.298 260.429 537.405 260.429C531.512 260.429 526.223 258.087 522.294 254.234C518.139 250.305 515.646 244.866 515.646 238.746Z" fill="#2FA4E7"/>
<path d="M891.142 965.108L859.032 950.224L760.134 904.439C760.587 902.626 760.965 900.812 761.343 898.999C764.062 886.004 765.725 872.782 766.178 859.334C766.253 856.463 766.329 853.592 766.329 850.721C766.254 831.455 763.836 811.887 758.774 792.546C756.809 784.915 754.392 777.284 751.596 769.729C742.832 746.156 730.668 724.851 715.86 706.189C684.808 666.902 642.196 639.099 594.976 625.952C555.689 614.997 513.153 614.242 471.599 625.499C464.723 627.388 457.848 629.579 450.973 632.148C414.33 645.747 383.127 667.657 358.648 694.856C335 721.224 317.623 752.578 307.876 786.426C307.801 786.728 307.725 787.03 307.574 787.408C301.757 807.807 298.659 829.113 298.659 850.721C298.659 854.045 298.735 857.294 298.81 860.619C299.339 873.765 301.001 886.986 303.797 900.208C306.139 911.163 309.312 922.043 313.316 932.847C331.751 982.258 365.07 1021.85 406.321 1048.22C466.083 1086.44 542.391 1097.1 613.94 1070.43C630.335 1064.31 645.596 1056.6 659.724 1047.46C680.955 1033.71 699.39 1016.86 714.727 997.746L752.276 1015.12L847.548 1059.25C861.676 1065.74 876.938 1065.97 890.16 1061.06C902.55 1056.45 913.052 1047.31 918.869 1034.54C930.505 1008.63 918.19 977.649 891.142 965.108ZM646.049 966.014C630.259 981.654 610.993 994.271 588.781 1002.51C587.345 1003.03 585.985 1003.56 584.55 1004.02C584.474 1004.02 584.399 1004.09 584.248 1004.09C515.495 1027.44 441.302 1001.68 400.882 944.86C392.873 933.602 386.149 921.061 381.087 907.461C380.86 906.781 380.558 906.101 380.331 905.346C373.909 887.364 370.887 868.929 370.887 850.797C370.963 830.7 374.74 810.981 381.918 792.621C398.011 751.143 431.178 716.464 476.132 699.767C479.154 698.634 482.176 697.576 485.274 696.67C485.349 696.67 485.425 696.594 485.425 696.594C565.737 672.115 652.245 713.518 682.919 792.621C683.221 793.377 683.523 794.057 683.75 794.812C690.625 813.247 693.874 832.211 693.95 850.797C693.95 858.352 693.421 865.832 692.439 873.236C690.928 883.889 688.434 894.315 684.883 904.439C679.973 918.492 673.097 931.865 664.56 944.104C659.12 951.81 652.925 959.215 646.049 966.014Z" fill="#0F2336"/>
<path d="M501.517 880.338L607.895 773.96C612.353 769.578 617.717 767.311 623.988 767.311C630.259 767.311 635.623 769.502 640.005 773.884C644.387 778.266 646.654 783.631 646.654 789.977C646.654 796.323 644.463 801.688 640.005 806.145L517.459 928.389C513.077 932.771 507.788 935.038 501.593 935.038C495.398 935.038 490.109 932.847 485.651 928.389L428.307 871.423C423.925 866.814 421.658 861.45 421.658 855.254C421.658 849.059 423.849 843.695 428.232 839.313C432.84 834.704 438.204 832.362 444.475 832.362C450.746 832.362 456.035 834.704 460.417 839.313L501.517 880.338Z" fill="#16C44D"/>
<path d="M463.59 359.252H381.162V441.68H463.59V359.252Z" fill="#16C44D"/>
<path d="M691.608 359.025H477.19V372.776H691.608V359.025Z" fill="#0F2336"/>
<path d="M691.683 393.477H477.265V407.228H691.683V393.477Z" fill="#0F2336"/>
<path d="M691.683 428.081H477.265V441.831H691.683V428.081Z" fill="#0F2336"/>
<path d="M464.572 481.723H382.145V564.151H464.572V481.723Z" fill="#16C44D"/>
<path d="M692.665 481.496H478.247V495.247H692.665V481.496Z" fill="#0F2336"/>
<path d="M692.741 515.948H478.323V529.699H692.741V515.948Z" fill="#0F2336"/>
<path d="M692.741 550.551H478.323V564.302H692.741V550.551Z" fill="#0F2336"/>
</g>
<defs>
<linearGradient id="paint0_linear_1_225" x1="503" y1="372" x2="531.512" y2="1024.87" gradientUnits="userSpaceOnUse">
<stop stop-color="#2FA4E7"/>
<stop offset="1" stop-color="#1C628B"/>
</linearGradient>
<clipPath id="clip0_1_225">
<rect width="1063" height="1085" fill="white"/>
</clipPath>
</defs>
</svg>
