<svg width="1063" height="1473" viewBox="0 0 1063 1473" fill="none" xmlns="http://www.w3.org/2000/svg">
<g clip-path="url(#clip0_1_150)">
<path d="M1021.17 324.649C994.422 261.336 956.117 204.521 907.31 155.714C858.503 106.907 801.688 68.6017 738.375 41.8561C672.795 14.1283 603.136 0 531.436 0C459.737 0 390.153 14.0528 324.498 41.8561C261.185 68.6017 204.37 106.907 155.563 155.714C106.907 204.445 68.6017 261.336 41.8561 324.649C14.1283 390.229 0 459.888 0 531.587C0 532.57 0 533.552 0 534.534C0.377762 605.855 14.7327 675.062 42.536 740.263C69.4327 803.274 107.813 859.787 156.545 908.292C205.276 956.797 262.016 994.875 325.178 1021.55C327.898 1022.68 330.542 1023.81 333.262 1024.87C312.561 1001.07 296.166 973.645 284.984 943.5C276.9 921.816 271.762 899.528 269.571 876.862C254.234 865.227 239.653 852.534 225.826 838.784C186.086 799.194 154.807 753.107 132.897 701.732C110.231 648.618 98.5205 592.105 98.2182 533.93C98.2182 533.174 98.2182 532.418 98.2182 531.663C98.2182 473.185 109.702 416.445 132.292 363.03C154.127 311.427 185.33 265.114 225.146 225.298C264.963 185.481 311.276 154.278 362.879 132.444C416.294 109.853 473.034 98.3694 531.512 98.3694C589.989 98.3694 646.729 109.853 700.145 132.444C751.747 154.278 798.061 185.481 837.877 225.298C877.693 265.114 908.897 311.427 930.731 363.03C953.321 416.445 964.805 473.185 964.805 531.663C964.805 534.458 964.805 536.801 964.73 538.992C963.748 596.638 951.659 652.547 928.691 705.056C906.479 755.827 875.125 801.385 835.46 840.446C822.767 852.988 801.612 872.707 787.635 883.511L884.644 928.918C891.368 922.949 897.941 916.754 904.439 910.408C953.019 862.583 991.475 806.674 1018.75 744.419C1046.93 679.972 1061.81 611.522 1062.95 540.805C1063.02 537.934 1063.02 535.063 1063.02 531.663C1063.02 459.813 1048.97 390.229 1021.17 324.649Z" fill="white"/>
<path d="M531.512 128.439C308.934 128.439 128.439 308.934 128.439 531.512C128.439 532.192 128.439 532.872 128.439 533.552C129.044 654.965 183.29 763.685 268.74 837.197C269.722 818.914 272.593 800.856 277.278 783.328V254.234H395.82C410.93 238.368 432.311 228.471 455.884 228.471H464.95C467.217 194.397 495.624 167.349 530.303 167.349H547.68C582.359 167.349 610.766 194.397 613.033 228.471H618.699C642.272 228.471 663.653 238.368 678.764 254.234H797.079V834.704C879.809 762.249 932.545 656.4 934.509 538.236C934.584 535.969 934.584 533.703 934.584 531.436C934.584 308.934 754.089 128.439 531.512 128.439Z" fill="#058454"/>
<path d="M934.584 531.512C934.584 533.778 934.584 536.045 934.509 538.312C890.462 559.24 844.601 576.843 797.079 590.745V254.234H678.764C663.653 238.368 642.272 228.471 618.699 228.471H613.033C610.766 194.397 582.359 167.349 547.68 167.349H530.303C495.624 167.349 467.217 194.397 464.95 228.471H455.884C432.311 228.471 410.93 238.368 395.82 254.234H277.278V591.123C225.675 576.163 175.886 556.746 128.439 533.476C128.439 532.796 128.439 532.116 128.439 531.436C128.439 308.859 308.934 128.364 531.512 128.364C754.089 128.364 934.584 308.934 934.584 531.512Z" fill="#16C44D"/>
<path d="M358.572 284.455V652.547C356.079 654.738 353.661 656.929 351.244 659.196C334.395 675.137 319.814 692.967 307.801 712.536V284.455H358.572Z" fill="white"/>
<path d="M766.631 284.455V729.459C753.485 704.074 736.335 681.106 715.784 661.311V284.455H766.631Z" fill="white"/>
<path d="M664.106 284.455C654.889 269.042 637.965 258.692 618.699 258.692H598.905C594.598 258.692 590.745 257.03 587.874 254.234C584.852 251.363 582.963 247.283 582.963 242.75V232.853C582.963 213.36 567.173 197.645 547.68 197.645H530.303C510.81 197.645 495.096 213.436 495.096 232.853V242.75C495.096 247.283 493.207 251.363 490.185 254.234C487.314 257.03 483.385 258.692 479.078 258.692H455.884C436.618 258.692 419.694 269.042 410.477 284.455C405.717 292.388 402.997 301.681 402.997 311.578H671.586C671.586 301.681 668.866 292.388 664.106 284.455ZM515.646 238.746C515.646 226.809 525.317 217.138 537.329 217.138C549.267 217.138 559.013 226.809 559.013 238.746C559.013 244.79 556.52 250.305 552.515 254.234C548.587 258.012 543.298 260.429 537.405 260.429C531.512 260.429 526.223 258.087 522.294 254.234C518.139 250.305 515.646 244.866 515.646 238.746Z" fill="white"/>
<path d="M891.142 965.107L859.032 950.224L760.134 904.439C760.587 902.626 760.965 900.812 761.343 898.999C764.062 886.004 765.725 872.782 766.178 859.334C766.253 856.463 766.329 853.592 766.329 850.721C766.253 831.455 763.836 811.887 758.774 792.546C756.809 784.915 754.392 777.284 751.596 769.729C742.832 746.156 730.668 724.851 715.86 706.189C684.808 666.902 642.196 639.099 594.976 625.952C555.689 614.997 513.153 614.242 471.599 625.499C464.723 627.388 457.848 629.579 450.973 632.148C414.33 645.747 383.127 667.657 358.648 694.856C335 721.224 317.623 752.578 307.876 786.426C307.801 786.728 307.725 787.03 307.574 787.408C301.757 807.807 298.659 829.113 298.659 850.721C298.659 854.045 298.735 857.294 298.81 860.618C299.339 873.765 301.001 886.986 303.797 900.208C306.139 911.163 309.312 922.043 313.316 932.847C331.751 982.258 365.07 1021.85 406.321 1048.22C466.083 1086.44 542.391 1097.1 613.94 1070.43C630.334 1064.31 645.596 1056.6 659.724 1047.46C680.955 1033.71 699.389 1016.86 714.727 997.746L752.276 1015.12L847.548 1059.25C861.676 1065.74 876.938 1065.97 890.16 1061.06C902.55 1056.45 913.052 1047.31 918.869 1034.54C930.505 1008.63 918.19 977.649 891.142 965.107ZM646.049 966.014C630.259 981.654 610.993 994.271 588.781 1002.51C587.345 1003.03 585.985 1003.56 584.55 1004.02C584.474 1004.02 584.399 1004.09 584.248 1004.09C515.495 1027.44 441.302 1001.67 400.882 944.859C392.873 933.602 386.149 921.06 381.087 907.461C380.86 906.781 380.558 906.101 380.331 905.345C373.909 887.364 370.887 868.929 370.887 850.797C370.963 830.7 374.74 810.98 381.918 792.621C398.011 751.143 431.178 716.464 476.132 699.767C479.154 698.634 482.176 697.576 485.274 696.67C485.349 696.67 485.425 696.594 485.425 696.594C565.737 672.115 652.245 713.518 682.919 792.621C683.221 793.377 683.523 794.057 683.75 794.812C690.625 813.247 693.874 832.211 693.95 850.797C693.95 858.352 693.421 865.832 692.439 873.236C690.928 883.889 688.434 894.315 684.883 904.439C679.973 918.492 673.097 931.864 664.56 944.104C659.12 951.81 652.925 959.214 646.049 966.014Z" fill="white"/>
<path d="M501.517 880.338L607.895 773.96C612.353 769.578 617.717 767.311 623.988 767.311C630.259 767.311 635.623 769.502 640.005 773.884C644.387 778.266 646.654 783.63 646.654 789.977C646.654 796.323 644.463 801.687 640.005 806.145L517.459 928.389C513.077 932.771 507.788 935.038 501.593 935.038C495.398 935.038 490.109 932.847 485.651 928.389L428.307 871.422C423.925 866.814 421.658 861.449 421.658 855.254C421.658 849.059 423.849 843.695 428.232 839.313C432.84 834.704 438.204 832.362 444.475 832.362C450.746 832.362 456.035 834.704 460.417 839.313L501.517 880.338Z" fill="#16C44D"/>
<path d="M463.59 359.252H381.162V441.68H463.59V359.252Z" fill="#16C44D"/>
<path d="M691.608 359.025H477.19V372.776H691.608V359.025Z" fill="white"/>
<path d="M691.683 393.477H477.265V407.228H691.683V393.477Z" fill="white"/>
<path d="M691.683 428.08H477.265V441.831H691.683V428.08Z" fill="white"/>
<path d="M464.572 481.723H382.145V564.15H464.572V481.723Z" fill="#16C44D"/>
<path d="M692.665 481.496H478.247V495.247H692.665V481.496Z" fill="white"/>
<path d="M692.741 515.948H478.323V529.699H692.741V515.948Z" fill="white"/>
<path d="M692.741 550.551H478.323V564.302H692.741V550.551Z" fill="white"/>
<path d="M216.126 1302.7C216.126 1356.84 174.774 1387.22 115.866 1387.22C74.5129 1387.22 32.7701 1372.81 0 1343.6L35.5009 1301.14C60.0784 1321.4 85.8263 1334.25 117.036 1334.25C141.613 1334.25 156.438 1324.51 156.438 1308.54V1307.76C156.438 1292.57 147.075 1284.78 101.431 1273.1C46.4242 1259.07 10.9234 1243.88 10.9234 1189.74V1188.96C10.9234 1139.5 50.7156 1106.78 106.503 1106.78C146.295 1106.78 180.235 1119.24 207.934 1141.44L176.724 1186.63C152.537 1169.88 128.74 1159.75 105.722 1159.75C82.7054 1159.75 70.6117 1170.27 70.6117 1183.51V1184.29C70.6117 1202.21 82.3153 1208.05 129.52 1220.12C184.917 1234.54 216.126 1254.4 216.126 1301.92V1302.7Z" fill="white"/>
<path d="M505.205 1383.33H442.396L417.428 1322.17H301.953L276.985 1383.33H215.736L332.772 1108.73H388.169L505.205 1383.33ZM395.971 1269.2L359.69 1180.78L323.409 1269.2H395.971Z" fill="white"/>
<path d="M784.576 1247C784.576 1324.51 723.328 1388 639.062 1388C554.796 1388 494.327 1325.29 494.327 1247.78V1247C494.327 1169.49 555.576 1106 639.842 1106C724.108 1106 784.576 1168.71 784.576 1246.22V1247ZM721.767 1247.78V1247C721.767 1200.26 687.437 1161.31 639.062 1161.31C590.687 1161.31 557.137 1199.48 557.137 1246.22V1247C557.137 1293.74 591.467 1332.69 639.842 1332.69C688.217 1332.69 721.767 1294.52 721.767 1247.78Z" fill="white"/>
<path d="M1063 1383.33H1000.19L975.223 1322.17H859.748L834.78 1383.33H773.531L890.567 1108.73H945.964L1063 1383.33ZM953.767 1269.2L917.485 1180.78L881.204 1269.2H953.767Z" fill="white"/>
<path d="M24.9545 1455.93C24.9545 1462.18 20.1798 1465.68 13.3781 1465.68C8.60344 1465.68 3.78371 1464.02 0 1460.65L4.09902 1455.75C6.93681 1458.09 9.90972 1459.57 13.5133 1459.57C16.351 1459.57 18.0627 1458.45 18.0627 1456.61V1456.52C18.0627 1454.77 16.9817 1453.87 11.7115 1452.52C5.36026 1450.9 1.26124 1449.15 1.26124 1442.91V1442.82C1.26124 1437.11 5.85575 1433.34 12.2971 1433.34C16.8916 1433.34 20.8104 1434.78 24.0086 1437.34L20.405 1442.55C17.6123 1440.62 14.8646 1439.45 12.207 1439.45C9.54937 1439.45 8.153 1440.66 8.153 1442.19V1442.28C8.153 1444.35 9.50433 1445.02 14.9547 1446.41C21.351 1448.07 24.9545 1450.36 24.9545 1455.84V1455.93Z" fill="white"/>
<path d="M37.7763 1465.23H30.8394V1433.79H37.7763V1465.23Z" fill="white"/>
<path d="M67.9981 1455.93C67.9981 1462.18 63.2234 1465.68 56.4217 1465.68C51.647 1465.68 46.8273 1464.02 43.0436 1460.65L47.1426 1455.75C49.9804 1458.09 52.9533 1459.57 56.5569 1459.57C59.3946 1459.57 61.1063 1458.45 61.1063 1456.61V1456.52C61.1063 1454.77 60.0253 1453.87 54.7551 1452.52C48.4039 1450.9 44.3048 1449.15 44.3048 1442.91V1442.82C44.3048 1437.11 48.8994 1433.34 55.3407 1433.34C59.9352 1433.34 63.854 1434.78 67.0522 1437.34L63.4486 1442.55C60.6559 1440.62 57.9082 1439.45 55.2506 1439.45C52.593 1439.45 51.1966 1440.66 51.1966 1442.19V1442.28C51.1966 1444.35 52.5479 1445.02 57.9983 1446.41C64.3946 1448.07 67.9981 1450.36 67.9981 1455.84V1455.93Z" fill="white"/>
<path d="M96.7813 1440.17H87.1869V1465.23H80.2501V1440.17H70.6557V1433.79H96.7813V1440.17Z" fill="white"/>
<path d="M125.674 1465.23H101.666V1433.79H125.449V1439.94H108.558V1446.32H123.422V1452.47H108.558V1459.08H125.674V1465.23Z" fill="white"/>
<path d="M162.922 1465.23H156.031V1444.7L147.157 1458.13H146.977L138.193 1444.84V1465.23H131.391V1433.79H138.869L147.157 1447.09L155.445 1433.79H162.922V1465.23Z" fill="white"/>
<path d="M200.767 1465.23H193.515L190.632 1458.18H177.299L174.416 1465.23H167.344L180.857 1433.57H187.254L200.767 1465.23ZM188.155 1452.07L183.965 1441.88L179.776 1452.07H188.155Z" fill="white"/>
<path d="M247.291 1449.51C247.291 1458.36 240.444 1465.23 230.534 1465.23H218.237V1433.79H230.534C240.444 1433.79 247.291 1440.57 247.291 1449.42V1449.51ZM240.038 1449.6V1449.51C240.038 1443.94 236.21 1440.03 230.534 1440.03H225.174V1458.99H230.534C236.21 1458.99 240.038 1455.17 240.038 1449.6Z" fill="white"/>
<path d="M277.03 1465.23H253.021V1433.79H276.805V1439.94H259.913V1446.32H274.778V1452.47H259.913V1459.08H277.03V1465.23Z" fill="white"/>
<path d="M326.521 1465.23H319.269L316.386 1458.18H303.053L300.17 1465.23H293.098L306.612 1433.57H313.008L326.521 1465.23ZM313.909 1452.07L309.72 1441.88L305.531 1452.07H313.909Z" fill="white"/>
<path d="M355.369 1433.79L342.621 1465.45H336.495L323.748 1433.79H331.405L339.648 1455.93L347.891 1433.79H355.369Z" fill="white"/>
<path d="M386.016 1465.23H378.764L375.882 1458.18H362.548L359.666 1465.23H352.594L366.107 1433.57H372.503L386.016 1465.23ZM373.404 1452.07L369.215 1441.88L365.026 1452.07H373.404Z" fill="white"/>
<path d="M413.09 1465.23H390.433V1433.79H397.369V1458.94H413.09V1465.23Z" fill="white"/>
<path d="M425.123 1465.23H418.186V1433.79H425.123V1465.23Z" fill="white"/>
<path d="M463.273 1465.23H456.02L453.138 1458.18H439.805L436.922 1465.23H429.85L443.363 1433.57H449.759L463.273 1465.23ZM450.66 1452.07L446.471 1441.88L442.282 1452.07H450.66Z" fill="white"/>
<path d="M478.589 1465.32C471.337 1463.66 466.292 1457.33 466.292 1449.56C466.292 1440.57 473.049 1433.25 482.733 1433.25C488.679 1433.25 492.238 1435.23 495.166 1438.1L490.751 1443.18C488.319 1440.98 485.841 1439.63 482.688 1439.63C477.373 1439.63 473.544 1444.03 473.544 1449.47C473.544 1454.9 477.283 1459.39 482.688 1459.39C486.292 1459.39 488.499 1457.95 490.976 1455.71L495.391 1460.15C492.373 1463.39 489.04 1465.45 483.634 1465.72L480.706 1473L474.986 1470.62L478.589 1465.32Z" fill="white"/>
<path d="M531.214 1465.23H523.962L521.079 1458.18H507.746L504.863 1465.23H497.791L511.304 1433.57H517.7L531.214 1465.23ZM518.601 1452.07L514.412 1441.88L510.223 1452.07H518.601ZM523.781 1425.12C522.745 1428.9 521.349 1431.32 518.196 1431.32C515.403 1431.32 513.061 1429.57 511.439 1429.57C510.043 1429.57 509.502 1430.33 508.872 1431.77L505.223 1430.65C506.259 1426.87 507.656 1424.45 510.809 1424.45C513.601 1424.45 515.944 1426.2 517.565 1426.2C518.962 1426.2 519.502 1425.44 520.133 1424L523.781 1425.12Z" fill="white"/>
<path d="M567.746 1449.51C567.746 1458.45 560.674 1465.77 550.945 1465.77C541.215 1465.77 534.233 1458.54 534.233 1449.6V1449.51C534.233 1440.57 541.305 1433.25 551.035 1433.25C560.764 1433.25 567.746 1440.48 567.746 1449.42V1449.51ZM560.494 1449.6V1449.51C560.494 1444.12 556.53 1439.63 550.945 1439.63C545.359 1439.63 541.485 1444.03 541.485 1449.42V1449.51C541.485 1454.9 545.449 1459.39 551.035 1459.39C556.62 1459.39 560.494 1454.99 560.494 1449.6Z" fill="white"/>
<path d="M618.62 1449.51C618.62 1458.45 611.548 1465.77 601.818 1465.77C592.089 1465.77 585.107 1458.54 585.107 1449.6V1449.51C585.107 1440.57 592.179 1433.25 601.908 1433.25C611.638 1433.25 618.62 1440.48 618.62 1449.42V1449.51ZM611.368 1449.6V1449.51C611.368 1444.12 607.404 1439.63 601.818 1439.63C596.233 1439.63 592.359 1444.03 592.359 1449.42V1449.51C592.359 1454.9 596.323 1459.39 601.908 1459.39C607.494 1459.39 611.368 1454.99 611.368 1449.6Z" fill="white"/>
<path d="M652.34 1465.23H646.44L631.17 1445.24V1465.23H624.323V1433.79H630.719L645.494 1453.15V1433.79H652.34V1465.23Z" fill="white"/>
<path d="M682.116 1465.23H659.459V1433.79H666.396V1458.94H682.116V1465.23Z" fill="white"/>
<path d="M694.149 1465.23H687.213V1433.79H694.149V1465.23Z" fill="white"/>
<path d="M729.596 1465.23H723.696L708.426 1445.24V1465.23H701.579V1433.79H707.975L722.75 1453.15V1433.79H729.596V1465.23Z" fill="white"/>
<path d="M760.724 1465.23H736.715V1433.79H760.499V1439.94H743.607V1446.32H758.472V1452.47H743.607V1459.08H760.724V1465.23Z" fill="white"/>
<path d="M808.548 1449.51C808.548 1458.36 801.702 1465.23 791.792 1465.23H779.495V1433.79H791.792C801.702 1433.79 808.548 1440.57 808.548 1449.42V1449.51ZM801.296 1449.6V1449.51C801.296 1443.94 797.468 1440.03 791.792 1440.03H786.432V1458.99H791.792C797.468 1458.99 801.296 1455.17 801.296 1449.6Z" fill="white"/>
<path d="M838.288 1465.23H814.279V1433.79H838.062V1439.94H821.171V1446.32H836.036V1452.47H821.171V1459.08H838.288V1465.23Z" fill="white"/>
<path d="M887.779 1465.23H880.527L877.644 1458.18H864.311L861.428 1465.23H854.356L867.869 1433.57H874.266L887.779 1465.23ZM875.167 1452.07L870.977 1441.88L866.788 1452.07H875.167Z" fill="white"/>
<path d="M919.447 1465.23H911.339L904.582 1455.17H899.132V1465.23H892.195V1433.79H906.609C914.042 1433.79 918.501 1437.7 918.501 1444.17V1444.26C918.501 1449.33 915.753 1452.52 911.744 1454L919.447 1465.23ZM911.474 1444.62V1444.53C911.474 1441.56 909.402 1440.03 906.024 1440.03H899.132V1449.06H906.159C909.537 1449.06 911.474 1447.26 911.474 1444.62Z" fill="white"/>
<path d="M948.17 1440.17H938.575V1465.23H931.638V1440.17H922.044V1433.79H948.17V1440.17Z" fill="white"/>
<path d="M960.306 1465.23H953.369V1433.79H960.306V1465.23Z" fill="white"/>
<path d="M996.384 1460.78C993.141 1463.52 988.681 1465.77 982.915 1465.77C973.096 1465.77 966.339 1458.9 966.339 1449.6V1449.51C966.339 1440.57 973.321 1433.25 982.87 1433.25C988.546 1433.25 991.969 1434.78 995.258 1437.56L990.888 1442.82C988.456 1440.8 986.294 1439.63 982.645 1439.63C977.6 1439.63 973.591 1444.08 973.591 1449.42V1449.51C973.591 1455.26 977.555 1459.48 983.141 1459.48C985.663 1459.48 987.915 1458.85 989.672 1457.59V1453.1H982.69V1447.13H996.384V1460.78Z" fill="white"/>
<path d="M1034.72 1449.51C1034.72 1458.45 1027.65 1465.77 1017.92 1465.77C1008.19 1465.77 1001.21 1458.54 1001.21 1449.6V1449.51C1001.21 1440.57 1008.28 1433.25 1018.01 1433.25C1027.74 1433.25 1034.72 1440.48 1034.72 1449.42V1449.51ZM1027.47 1449.6V1449.51C1027.47 1444.12 1023.51 1439.63 1017.92 1439.63C1012.34 1439.63 1008.46 1444.03 1008.46 1449.42V1449.51C1008.46 1454.9 1012.43 1459.39 1018.01 1459.39C1023.6 1459.39 1027.47 1454.99 1027.47 1449.6Z" fill="white"/>
<path d="M1063 1455.93C1063 1462.18 1058.23 1465.68 1051.42 1465.68C1046.65 1465.68 1041.83 1464.02 1038.05 1460.65L1042.14 1455.75C1044.98 1458.09 1047.96 1459.57 1051.56 1459.57C1054.4 1459.57 1056.11 1458.45 1056.11 1456.61V1456.52C1056.11 1454.77 1055.03 1453.87 1049.76 1452.52C1043.41 1450.9 1039.31 1449.15 1039.31 1442.91V1442.82C1039.31 1437.11 1043.9 1433.34 1050.34 1433.34C1054.94 1433.34 1058.86 1434.78 1062.05 1437.34L1058.45 1442.55C1055.66 1440.62 1052.91 1439.45 1050.25 1439.45C1047.59 1439.45 1046.2 1440.66 1046.2 1442.19V1442.28C1046.2 1444.35 1047.55 1445.02 1053 1446.41C1059.4 1448.07 1063 1450.36 1063 1455.84V1455.93Z" fill="white"/>
</g>
<defs>
<clipPath id="clip0_1_150">
<rect width="1063" height="1473" fill="white"/>
</clipPath>
</defs>
</svg>
