<svg width="3046" height="1085" viewBox="0 0 3046 1085" fill="none" xmlns="http://www.w3.org/2000/svg">
<g clip-path="url(#clip0_1_176)">
<path d="M1021.17 324.649C994.422 261.336 956.117 204.521 907.31 155.714C858.503 106.907 801.688 68.6017 738.375 41.8561C672.795 14.1283 603.136 0 531.436 0C459.737 0 390.153 14.0528 324.498 41.8561C261.185 68.6017 204.37 106.907 155.563 155.714C106.907 204.445 68.6017 261.336 41.8561 324.649C14.1283 390.229 0 459.888 0 531.587C0 532.57 0 533.552 0 534.534C0.377762 605.855 14.7327 675.062 42.536 740.263C69.4327 803.274 107.813 859.787 156.545 908.292C205.276 956.797 262.016 994.875 325.178 1021.55C327.898 1022.68 330.542 1023.81 333.262 1024.87C312.561 1001.07 296.166 973.645 284.984 943.5C276.9 921.816 271.762 899.528 269.571 876.862C254.234 865.227 239.653 852.534 225.826 838.784C186.086 799.194 154.807 753.107 132.897 701.732C110.231 648.618 98.5205 592.105 98.2182 533.93C98.2182 533.174 98.2182 532.418 98.2182 531.663C98.2182 473.185 109.702 416.445 132.292 363.03C154.127 311.427 185.33 265.114 225.146 225.298C264.963 185.481 311.276 154.278 362.879 132.444C416.294 109.853 473.034 98.3694 531.512 98.3694C589.989 98.3694 646.729 109.853 700.145 132.444C751.747 154.278 798.061 185.481 837.877 225.298C877.693 265.114 908.897 311.427 930.731 363.03C953.321 416.445 964.805 473.185 964.805 531.663C964.805 534.458 964.805 536.801 964.73 538.992C963.748 596.638 951.659 652.547 928.691 705.056C906.479 755.827 875.125 801.385 835.46 840.446C822.767 852.988 801.612 872.707 787.635 883.511L884.644 928.918C891.368 922.949 897.941 916.754 904.439 910.408C953.019 862.583 991.475 806.674 1018.75 744.419C1046.93 679.972 1061.81 611.522 1062.95 540.805C1063.02 537.934 1063.02 535.063 1063.02 531.663C1063.02 459.813 1048.97 390.229 1021.17 324.649Z" fill="white"/>
<path d="M531.512 128.439C308.934 128.439 128.439 308.934 128.439 531.512C128.439 532.192 128.439 532.872 128.439 533.552C129.044 654.965 183.29 763.685 268.74 837.197C269.722 818.914 272.593 800.856 277.278 783.328V254.234H395.82C410.93 238.368 432.311 228.471 455.884 228.471H464.95C467.217 194.397 495.624 167.349 530.303 167.349H547.68C582.359 167.349 610.766 194.397 613.033 228.471H618.699C642.272 228.471 663.653 238.368 678.764 254.234H797.079V834.704C879.809 762.249 932.544 656.4 934.509 538.236C934.584 535.969 934.584 533.703 934.584 531.436C934.584 308.934 754.089 128.439 531.512 128.439Z" fill="#058454"/>
<path d="M934.584 531.512C934.584 533.778 934.584 536.045 934.509 538.312C890.462 559.24 844.601 576.843 797.079 590.745V254.234H678.764C663.653 238.368 642.272 228.471 618.699 228.471H613.033C610.766 194.397 582.359 167.349 547.68 167.349H530.303C495.624 167.349 467.217 194.397 464.95 228.471H455.884C432.311 228.471 410.93 238.368 395.82 254.234H277.278V591.123C225.675 576.163 175.886 556.746 128.439 533.476C128.439 532.796 128.439 532.116 128.439 531.436C128.439 308.859 308.934 128.364 531.512 128.364C754.089 128.364 934.584 308.934 934.584 531.512Z" fill="#16C44D"/>
<path d="M358.572 284.455V652.547C356.079 654.738 353.661 656.929 351.244 659.196C334.395 675.137 319.814 692.968 307.801 712.536V284.455H358.572Z" fill="white"/>
<path d="M766.631 284.455V729.46C753.485 704.074 736.335 681.106 715.784 661.311V284.455H766.631Z" fill="white"/>
<path d="M664.106 284.455C654.889 269.043 637.965 258.692 618.699 258.692H598.905C594.598 258.692 590.745 257.03 587.874 254.234C584.852 251.363 582.963 247.283 582.963 242.75V232.853C582.963 213.36 567.173 197.646 547.68 197.646H530.303C510.81 197.646 495.096 213.436 495.096 232.853V242.75C495.096 247.283 493.207 251.363 490.185 254.234C487.314 257.03 483.385 258.692 479.078 258.692H455.884C436.618 258.692 419.694 269.043 410.477 284.455C405.717 292.388 402.997 301.681 402.997 311.579H671.586C671.586 301.681 668.866 292.388 664.106 284.455ZM515.646 238.746C515.646 226.809 525.317 217.138 537.329 217.138C549.267 217.138 559.013 226.809 559.013 238.746C559.013 244.79 556.52 250.306 552.515 254.234C548.587 258.012 543.298 260.43 537.405 260.43C531.512 260.43 526.223 258.087 522.294 254.234C518.139 250.306 515.646 244.866 515.646 238.746Z" fill="white"/>
<path d="M891.142 965.107L859.032 950.224L760.134 904.439C760.587 902.626 760.965 900.812 761.343 898.999C764.062 886.004 765.725 872.782 766.178 859.334C766.253 856.463 766.329 853.592 766.329 850.721C766.254 831.455 763.836 811.887 758.774 792.546C756.809 784.915 754.392 777.284 751.596 769.729C742.832 746.156 730.668 724.851 715.86 706.189C684.808 666.902 642.196 639.099 594.976 625.952C555.689 614.997 513.153 614.242 471.599 625.499C464.723 627.388 457.848 629.579 450.973 632.148C414.33 645.747 383.127 667.657 358.648 694.856C335 721.224 317.623 752.578 307.876 786.426C307.801 786.728 307.725 787.03 307.574 787.408C301.757 807.807 298.659 829.113 298.659 850.721C298.659 854.045 298.735 857.294 298.81 860.618C299.339 873.765 301.001 886.986 303.797 900.208C306.139 911.163 309.312 922.043 313.316 932.847C331.751 982.258 365.07 1021.85 406.321 1048.22C466.083 1086.44 542.391 1097.1 613.94 1070.43C630.335 1064.31 645.596 1056.6 659.724 1047.46C680.955 1033.71 699.39 1016.86 714.727 997.746L752.276 1015.12L847.548 1059.25C861.676 1065.74 876.938 1065.97 890.16 1061.06C902.55 1056.45 913.052 1047.31 918.869 1034.54C930.505 1008.63 918.19 977.649 891.142 965.107ZM646.049 966.014C630.259 981.654 610.993 994.271 588.781 1002.51C587.345 1003.03 585.985 1003.56 584.55 1004.02C584.474 1004.02 584.399 1004.09 584.248 1004.09C515.495 1027.44 441.302 1001.67 400.882 944.859C392.873 933.602 386.149 921.06 381.087 907.461C380.86 906.781 380.558 906.101 380.331 905.345C373.909 887.364 370.887 868.929 370.887 850.797C370.963 830.7 374.74 810.98 381.918 792.621C398.011 751.143 431.178 716.464 476.132 699.767C479.154 698.634 482.176 697.576 485.274 696.67C485.349 696.67 485.425 696.594 485.425 696.594C565.737 672.115 652.245 713.518 682.919 792.621C683.221 793.377 683.523 794.057 683.75 794.812C690.625 813.247 693.874 832.211 693.95 850.797C693.95 858.352 693.421 865.832 692.439 873.236C690.928 883.889 688.434 894.315 684.883 904.439C679.973 918.492 673.097 931.864 664.56 944.104C659.12 951.81 652.925 959.214 646.049 966.014Z" fill="white"/>
<path d="M501.517 880.338L607.895 773.96C612.353 769.578 617.717 767.311 623.988 767.311C630.259 767.311 635.623 769.502 640.005 773.884C644.387 778.266 646.654 783.63 646.654 789.977C646.654 796.323 644.463 801.687 640.005 806.145L517.459 928.389C513.077 932.771 507.788 935.038 501.593 935.038C495.398 935.038 490.109 932.847 485.651 928.389L428.307 871.422C423.925 866.814 421.658 861.449 421.658 855.254C421.658 849.059 423.849 843.695 428.232 839.313C432.84 834.704 438.204 832.362 444.475 832.362C450.746 832.362 456.035 834.704 460.417 839.313L501.517 880.338Z" fill="#16C44D"/>
<path d="M463.59 359.252H381.162V441.68H463.59V359.252Z" fill="#16C44D"/>
<path d="M691.608 359.025H477.19V372.776H691.608V359.025Z" fill="white"/>
<path d="M691.683 393.477H477.265V407.228H691.683V393.477Z" fill="white"/>
<path d="M691.683 428.08H477.265V441.831H691.683V428.08Z" fill="white"/>
<path d="M464.572 481.723H382.145V564.15H464.572V481.723Z" fill="#16C44D"/>
<path d="M692.665 481.496H478.247V495.247H692.665V481.496Z" fill="white"/>
<path d="M692.741 515.948H478.323V529.699H692.741V515.948Z" fill="white"/>
<path d="M692.741 550.551H478.323V564.302H692.741V550.551Z" fill="white"/>
<path d="M1537.08 566.152C1537.08 662.53 1463.4 716.613 1358.44 716.613C1284.76 716.613 1210.39 690.959 1152 638.956L1215.25 563.378C1259.04 599.434 1304.92 622.315 1360.53 622.315C1404.32 622.315 1430.73 604.981 1430.73 576.552V575.166C1430.73 548.124 1414.05 534.257 1332.72 513.456C1234.72 488.494 1171.46 461.453 1171.46 365.075V363.688C1171.46 275.63 1242.36 217.387 1341.76 217.387C1412.66 217.387 1473.13 239.575 1522.49 279.097L1466.88 359.528C1423.78 329.713 1381.38 311.685 1340.37 311.685C1299.36 311.685 1277.81 330.406 1277.81 353.981V355.367C1277.81 387.262 1298.67 397.663 1382.77 419.157C1481.48 444.812 1537.08 480.174 1537.08 564.765V566.152Z" fill="white"/>
<path d="M2052.15 709.68H1940.24L1895.75 600.82H1690L1645.52 709.68H1536.39L1744.92 220.854H1843.62L2052.15 709.68ZM1857.52 506.522L1792.88 349.127L1728.23 506.522H1857.52Z" fill="white"/>
<path d="M2549.92 467C2549.92 604.981 2440.79 718 2290.65 718C2140.51 718 2032.77 606.367 2032.77 468.387V467C2032.77 329.019 2141.9 216 2292.04 216C2442.18 216 2549.92 327.633 2549.92 465.613V467ZM2438.01 468.387V467C2438.01 383.796 2376.84 314.459 2290.65 314.459C2204.46 314.459 2144.68 382.409 2144.68 465.613V467C2144.68 550.204 2205.85 619.541 2292.04 619.541C2378.23 619.541 2438.01 551.591 2438.01 468.387Z" fill="white"/>
<path d="M3046 709.68H2934.09L2889.6 600.82H2683.86L2639.37 709.68H2530.24L2738.77 220.854H2837.47L3046 709.68ZM2851.37 506.522L2786.73 349.127L2722.09 506.522H2851.37Z" fill="white"/>
<path d="M1196.46 838.698C1196.46 849.782 1187.96 856.002 1175.84 856.002C1167.33 856.002 1158.74 853.051 1152 847.071L1159.3 838.379C1164.36 842.525 1169.66 845.157 1176.08 845.157C1181.13 845.157 1184.18 843.163 1184.18 839.894V839.734C1184.18 836.624 1182.26 835.029 1172.87 832.637C1161.55 829.766 1154.25 826.656 1154.25 815.572V815.412C1154.25 805.285 1162.43 798.587 1173.91 798.587C1182.1 798.587 1189.08 801.138 1194.78 805.684L1188.36 814.934C1183.38 811.505 1178.48 809.432 1173.75 809.432C1169.01 809.432 1166.53 811.585 1166.53 814.296V814.456C1166.53 818.124 1168.93 819.32 1178.65 821.792C1190.04 824.742 1196.46 828.809 1196.46 838.538V838.698Z" fill="white"/>
<path d="M1219.31 855.204H1206.95V799.384H1219.31V855.204Z" fill="white"/>
<path d="M1273.16 838.698C1273.16 849.782 1264.65 856.002 1252.53 856.002C1244.02 856.002 1235.43 853.051 1228.69 847.071L1236 838.379C1241.05 842.525 1246.35 845.157 1252.77 845.157C1257.83 845.157 1260.88 843.163 1260.88 839.894V839.734C1260.88 836.624 1258.95 835.029 1249.56 832.637C1238.24 829.766 1230.94 826.656 1230.94 815.572V815.412C1230.94 805.285 1239.13 798.587 1250.6 798.587C1258.79 798.587 1265.77 801.138 1271.47 805.684L1265.05 814.934C1260.07 811.505 1255.18 809.432 1250.44 809.432C1245.71 809.432 1243.22 811.585 1243.22 814.296V814.456C1243.22 818.124 1245.63 819.32 1255.34 821.792C1266.73 824.742 1273.16 828.809 1273.16 838.538V838.698Z" fill="white"/>
<path d="M1324.44 810.708H1307.35V855.204H1294.99V810.708H1277.89V799.384H1324.44V810.708Z" fill="white"/>
<path d="M1375.92 855.204H1333.14V799.384H1375.52V810.309H1345.42V821.632H1371.91V832.557H1345.42V844.28H1375.92V855.204Z" fill="white"/>
<path d="M1442.29 855.204H1430.01V818.762L1414.2 842.605H1413.88L1398.23 819.001V855.204H1386.11V799.384H1399.43L1414.2 822.988L1428.96 799.384H1442.29V855.204Z" fill="white"/>
<path d="M1509.72 855.204H1496.79L1491.66 842.685H1467.9L1462.77 855.204H1450.17L1474.24 798.985H1485.64L1509.72 855.204ZM1487.24 831.84L1479.78 813.738L1472.32 831.84H1487.24Z" fill="white"/>
<path d="M1592.61 827.294C1592.61 843.004 1580.41 855.204 1562.75 855.204H1540.84V799.384H1562.75C1580.41 799.384 1592.61 811.425 1592.61 827.135V827.294ZM1579.69 827.454V827.294C1579.69 817.406 1572.87 810.468 1562.75 810.468H1553.2V844.12H1562.75C1572.87 844.12 1579.69 837.342 1579.69 827.454Z" fill="white"/>
<path d="M1645.6 855.204H1602.82V799.384H1645.2V810.309H1615.1V821.632H1641.59V832.557H1615.1V844.28H1645.6V855.204Z" fill="white"/>
<path d="M1733.78 855.204H1720.86L1715.72 842.685H1691.96L1686.83 855.204H1674.23L1698.31 798.985H1709.7L1733.78 855.204ZM1711.31 831.84L1703.84 813.738L1696.38 831.84H1711.31Z" fill="white"/>
<path d="M1785.18 799.384L1762.47 855.603H1751.55L1728.84 799.384H1742.48L1757.17 838.698L1771.86 799.384H1785.18Z" fill="white"/>
<path d="M1839.78 855.204H1826.86L1821.73 842.685H1797.97L1792.83 855.204H1780.23L1804.31 798.985H1815.71L1839.78 855.204ZM1817.31 831.84L1809.85 813.738L1802.38 831.84H1817.31Z" fill="white"/>
<path d="M1888.02 855.204H1847.65V799.384H1860.01V844.04H1888.02V855.204Z" fill="white"/>
<path d="M1909.46 855.204H1897.1V799.384H1909.46V855.204Z" fill="white"/>
<path d="M1977.44 855.204H1964.51L1959.38 842.685H1935.62L1930.49 855.204H1917.88L1941.96 798.985H1953.36L1977.44 855.204ZM1954.96 831.84L1947.5 813.738L1940.04 831.84H1954.96Z" fill="white"/>
<path d="M2004.73 855.364C1991.81 852.413 1982.82 841.17 1982.82 827.374C1982.82 811.425 1994.85 798.427 2012.11 798.427C2022.7 798.427 2029.04 801.936 2034.26 807.039L2026.4 816.05C2022.06 812.143 2017.65 809.751 2012.03 809.751C2002.56 809.751 1995.74 817.566 1995.74 827.214C1995.74 836.863 2002.4 844.838 2012.03 844.838C2018.45 844.838 2022.38 842.286 2026.8 838.299L2034.66 846.193C2029.29 851.935 2023.35 855.603 2013.72 856.082L2008.5 869L1998.31 864.774L2004.73 855.364Z" fill="white"/>
<path d="M2098.49 855.204H2085.57L2080.43 842.685H2056.68L2051.54 855.204H2038.94L2063.02 798.985H2074.41L2098.49 855.204ZM2076.02 831.84L2068.55 813.738L2061.09 831.84H2076.02ZM2085.25 783.994C2083.4 790.692 2080.91 794.998 2075.3 794.998C2070.32 794.998 2066.15 791.888 2063.26 791.888C2060.77 791.888 2059.81 793.244 2058.68 795.796L2052.18 793.802C2054.03 787.104 2056.52 782.797 2062.13 782.797C2067.11 782.797 2071.28 785.907 2074.17 785.907C2076.66 785.907 2077.62 784.552 2078.75 782L2085.25 783.994Z" fill="white"/>
<path d="M2163.58 827.294C2163.58 843.163 2150.98 856.161 2133.65 856.161C2116.31 856.161 2103.87 843.323 2103.87 827.454V827.294C2103.87 811.425 2116.47 798.427 2133.81 798.427C2151.14 798.427 2163.58 811.266 2163.58 827.135V827.294ZM2150.66 827.454V827.294C2150.66 817.725 2143.6 809.751 2133.65 809.751C2123.69 809.751 2116.79 817.566 2116.79 827.135V827.294C2116.79 836.863 2123.85 844.838 2133.81 844.838C2143.76 844.838 2150.66 837.023 2150.66 827.454Z" fill="white"/>
<path d="M2254.23 827.294C2254.23 843.163 2241.63 856.161 2224.29 856.161C2206.95 856.161 2194.51 843.323 2194.51 827.454V827.294C2194.51 811.425 2207.11 798.427 2224.45 798.427C2241.79 798.427 2254.23 811.266 2254.23 827.135V827.294ZM2241.3 827.454V827.294C2241.3 817.725 2234.24 809.751 2224.29 809.751C2214.34 809.751 2207.44 817.566 2207.44 827.135V827.294C2207.44 836.863 2214.5 844.838 2224.45 844.838C2234.4 844.838 2241.3 837.023 2241.3 827.454Z" fill="white"/>
<path d="M2314.31 855.204H2303.79L2276.59 819.719V855.204H2264.39V799.384H2275.78L2302.11 833.753V799.384H2314.31V855.204Z" fill="white"/>
<path d="M2367.36 855.204H2326.99V799.384H2339.35V844.04H2367.36V855.204Z" fill="white"/>
<path d="M2388.8 855.204H2376.44V799.384H2388.8V855.204Z" fill="white"/>
<path d="M2451.96 855.204H2441.44L2414.24 819.719V855.204H2402.04V799.384H2413.43L2439.76 833.753V799.384H2451.96V855.204Z" fill="white"/>
<path d="M2507.42 855.204H2464.64V799.384H2507.02V810.309H2476.92V821.632H2503.41V832.557H2476.92V844.28H2507.42V855.204Z" fill="white"/>
<path d="M2592.63 827.294C2592.63 843.004 2580.43 855.204 2562.78 855.204H2540.86V799.384H2562.78C2580.43 799.384 2592.63 811.425 2592.63 827.135V827.294ZM2579.71 827.454V827.294C2579.71 817.406 2572.89 810.468 2562.78 810.468H2553.22V844.12H2562.78C2572.89 844.12 2579.71 837.342 2579.71 827.454Z" fill="white"/>
<path d="M2645.62 855.204H2602.84V799.384H2645.22V810.309H2615.12V821.632H2641.61V832.557H2615.12V844.28H2645.62V855.204Z" fill="white"/>
<path d="M2733.8 855.204H2720.88L2715.74 842.685H2691.99L2686.85 855.204H2674.25L2698.33 798.985H2709.72L2733.8 855.204ZM2711.33 831.84L2703.86 813.738L2696.4 831.84H2711.33Z" fill="white"/>
<path d="M2790.22 855.204H2775.78L2763.74 837.342H2754.03V855.204H2741.67V799.384H2767.35C2780.59 799.384 2788.54 806.322 2788.54 817.805V817.964C2788.54 826.975 2783.64 832.637 2776.5 835.269L2790.22 855.204ZM2776.02 818.602V818.443C2776.02 813.18 2772.33 810.468 2766.31 810.468H2754.03V826.497H2766.55C2772.57 826.497 2776.02 823.307 2776.02 818.602Z" fill="white"/>
<path d="M2841.4 810.708H2824.31V855.204H2811.95V810.708H2794.85V799.384H2841.4V810.708Z" fill="white"/>
<path d="M2863.03 855.204H2850.67V799.384H2863.03V855.204Z" fill="white"/>
<path d="M2927.31 847.31C2921.53 852.174 2913.58 856.161 2903.31 856.161C2885.81 856.161 2873.77 843.961 2873.77 827.454V827.294C2873.77 811.425 2886.21 798.427 2903.23 798.427C2913.34 798.427 2919.44 801.138 2925.3 806.082L2917.51 815.412C2913.18 811.824 2909.33 809.751 2902.83 809.751C2893.84 809.751 2886.7 817.645 2886.7 827.135V827.294C2886.7 837.501 2893.76 844.997 2903.71 844.997C2908.21 844.997 2912.22 843.881 2915.35 841.648V833.674H2902.91V823.068H2927.31V847.31Z" fill="white"/>
<path d="M2995.62 827.294C2995.62 843.163 2983.02 856.161 2965.68 856.161C2948.35 856.161 2935.91 843.323 2935.91 827.454V827.294C2935.91 811.425 2948.51 798.427 2965.84 798.427C2983.18 798.427 2995.62 811.266 2995.62 827.135V827.294ZM2982.7 827.454V827.294C2982.7 817.725 2975.64 809.751 2965.68 809.751C2955.73 809.751 2948.83 817.566 2948.83 827.135V827.294C2948.83 836.863 2955.89 844.838 2965.84 844.838C2975.8 844.838 2982.7 837.023 2982.7 827.454Z" fill="white"/>
<path d="M3046 838.698C3046 849.782 3037.49 856.002 3025.37 856.002C3016.87 856.002 3008.28 853.051 3001.54 847.071L3008.84 838.379C3013.9 842.525 3019.19 845.157 3025.61 845.157C3030.67 845.157 3033.72 843.163 3033.72 839.894V839.734C3033.72 836.624 3031.79 835.029 3022.4 832.637C3011.09 829.766 3003.78 826.656 3003.78 815.572V815.412C3003.78 805.285 3011.97 798.587 3023.45 798.587C3031.63 798.587 3038.62 801.138 3044.31 805.684L3037.89 814.934C3032.92 811.505 3028.02 809.432 3023.29 809.432C3018.55 809.432 3016.06 811.585 3016.06 814.296V814.456C3016.06 818.124 3018.47 819.32 3028.18 821.792C3039.58 824.742 3046 828.809 3046 838.538V838.698Z" fill="white"/>
</g>
<defs>
<clipPath id="clip0_1_176">
<rect width="3046" height="1085" fill="white"/>
</clipPath>
</defs>
</svg>
